<svg xmlns="http://www.w3.org/2000/svg" version="1.1" xmlns:xlink="http://www.w3.org/1999/xlink" xmlns:svgjs="http://svgjs.dev/svgjs" viewBox="0 0 1422 800"><defs><radialGradient id="cccircular-grad" r="50%" cx="50%" cy="50%">
         <stop offset="15%" stop-color="#b32a17" stop-opacity="0.5"></stop>
         <stop offset="75%" stop-color="hsl(10, 82%, 59%)" stop-opacity="1"></stop>
          <stop offset="100%" stop-color="#ffc19c" stop-opacity="1"></stop>
        </radialGradient></defs><g fill="url(#cccircular-grad)"><circle r="4662" cx="1422" cy="400" opacity="1.00"></circle><circle r="4495.5" cx="1422" cy="400" opacity="0.96"></circle><circle r="4329" cx="1422" cy="400" opacity="0.93"></circle><circle r="4162.5" cx="1422" cy="400" opacity="0.89"></circle><circle r="3996" cx="1422" cy="400" opacity="0.86"></circle><circle r="3829.5" cx="1422" cy="400" opacity="0.82"></circle><circle r="3663" cx="1422" cy="400" opacity="0.79"></circle><circle r="3496.5" cx="1422" cy="400" opacity="0.75"></circle><circle r="3330" cx="1422" cy="400" opacity="0.72"></circle><circle r="3163.5" cx="1422" cy="400" opacity="0.68"></circle><circle r="2997" cx="1422" cy="400" opacity="0.65"></circle><circle r="2830.5" cx="1422" cy="400" opacity="0.61"></circle><circle r="2664" cx="1422" cy="400" opacity="0.58"></circle><circle r="2497.5" cx="1422" cy="400" opacity="0.54"></circle><circle r="2331" cx="1422" cy="400" opacity="0.51"></circle><circle r="2164.5" cx="1422" cy="400" opacity="0.47"></circle><circle r="1998" cx="1422" cy="400" opacity="0.44"></circle><circle r="1831.5" cx="1422" cy="400" opacity="0.40"></circle><circle r="1665" cx="1422" cy="400" opacity="0.37"></circle><circle r="1498.5" cx="1422" cy="400" opacity="0.33"></circle><circle r="1332" cx="1422" cy="400" opacity="0.30"></circle><circle r="1165.5" cx="1422" cy="400" opacity="0.26"></circle><circle r="999" cx="1422" cy="400" opacity="0.23"></circle><circle r="832.5" cx="1422" cy="400" opacity="0.19"></circle><circle r="666" cx="1422" cy="400" opacity="0.16"></circle><circle r="499.5" cx="1422" cy="400" opacity="0.12"></circle><circle r="333" cx="1422" cy="400" opacity="0.09"></circle></g></svg>